#N canvas 736 79 744 584 10;
#X text 141 12 - 2D spatialisation by ambisonic B format;
#X text 32 38 Authors: R.MIGNOT and B.COURRIBET \, CICM Universite
Paris Nord \, ACI Jeunes Chercheurs "Espaces Sonores".;
#X text 26 189 - 3rd inlet: ordinate or angle of the source in degrees.
;
#X text 26 211 - 1st parameter: Number of outlets \, and so of loudspeakers
by default. Without parameters there are 4 outlets.;
#X text 26 238 - 2nd parameter: Coordinate type: 'c' -> cartesian \,
'p' -> polar \, by default the coordinates are cartesian.;
#X text 26 265 - 3rd parameter: Control type of the coordinates: 'c'
-> control data \, 's' -> audio signal \, without parameter it is control
data.;
#X text 26 300 - 4th parameter: Ambisonic offset. By default .3.;
#X text 26 315 - 5th parameter: Interpolation time in ms. With control
data only.;
#X text 26 343 - outlets: Audio oultets to the loudspeakers. The disposition
is: 1st outlet to the left loudspeaker facing \, then we turn to the
right. It is possible to change this disposition.;
#X msg 426 40 \; pd dsp 1;
#X obj 511 25 osc~ 440;
#X obj 526 82 / 100;
#X obj 605 63 phasor~ 0.5;
#X obj 676 89 -~ 0.25;
#X obj 676 111 cos~;
#X obj 605 95 cos~;
#X obj 543 163 dac~;
#X text 510 9 source;
#X text 525 43 gain;
#X text 595 120 X;
#X text 630 120 Y;
#X obj 433 195 osc~ 441;
#X obj 448 251 / 100;
#X text 447 214 gain;
#X text 433 178 source;
#X floatatom 608 220 5 0 0 0 - - -;
#X floatatom 664 220 5 0 0 0 - - -;
#X obj 608 241 / 100;
#X obj 520 273 pack f f;
#X floatatom 520 220 5 0 0 0 - - -;
#X floatatom 563 220 5 0 0 0 - - -;
#X obj 520 234 / 100;
#X obj 520 254 bng 15 250 50 0 empty empty empty 0 -6 0 8 -262144 -1
-1;
#X text 518 206 rayon;
#X text 606 205 rayon;
#X text 662 205 angle;
#X text 562 206 angle;
#X obj 526 359 dac~ 1 2 3 4 5 6 7 8;
#X msg 409 416 set_nb_hp 4;
#X msg 409 436 get_info;
#X msg 409 455 set_offset 0.1;
#X text 500 454 <- Change offset value;
#X text 466 435 <------- Print information.;
#X text 484 416 <---- Change the loudspeakers number.;
#X text 80 410 for change of loudspeakers disposition.;
#N canvas 778 257 432 375 change_loudspeakers_disposition 0;
#X text 81 4 for change of the loudspeakers disposition:;
#X text 25 27 cartesian coordinates.;
#X msg 18 45 xy_setpos -1 1 1 1;
#X text 29 115 polar coordinates.;
#X msg 18 132 ra_setpos 1 135 1 45 0.7 -45 0.7 -135;
#X text 45 154 With the symbol "ra_setpos" we can modify the disposition
with polar coordinate \, "distance angle".;
#X text 29 194 only with distance;
#X msg 18 210 a_setpos 90 0 -90 180;
#X msg 18 285 get_info;
#X text 48 231 With the symbol "a_setpos" we can modify the disposition
only with the distance. So the loudspeakers are on the unity circle
with the specified angle.;
#X text 42 63 The symbol "xy_setpos" allows to modify the loudspeakers
disposition with their cartesian coordinates. "abscissa ordinate" from
the first loudspeaker to the last.;
#X obj 18 316 cicmtools/ambipan~ 4;
#X connect 2 0 11 0;
#X connect 4 0 11 0;
#X connect 7 0 11 0;
#X connect 8 0 11 0;
#X restore 82 427 pd change_loudspeakers_disposition;
#X text 80 461 Others fonctionnalities.;
#N canvas 590 149 600 503 others_fonctionnalities 0;
#X obj 171 343 env~;
#X obj 218 343 env~;
#X obj 264 343 env~;
#X obj 312 343 env~;
#X floatatom 171 391 5 0 0 0 - - -;
#X floatatom 264 424 5 0 0 0 - - -;
#X floatatom 263 390 5 0 0 0 - - -;
#X floatatom 171 424 5 0 0 0 - - -;
#X floatatom 392 203 5 0 0 0 - - -;
#X floatatom 442 203 5 0 0 0 - - -;
#X msg 75 265 get_info;
#X obj 222 277 pack f f;
#X obj 222 257 bng 15 250 50 0 empty empty empty 0 -6 0 8 -262144 -1
-1;
#X obj 76 291 sig~ 1;
#X obj 392 261 sig~ 1;
#X obj 392 221 / 100;
#X obj 442 221 / 100;
#X obj 442 261 sig~ 0;
#X msg 75 142 change_type p;
#X msg 75 159 change_type c;
#X floatatom 392 241 5 0 0 0 - - -;
#X floatatom 442 241 5 0 0 0 - - -;
#X floatatom 222 195 5 0 0 0 - - -;
#X floatatom 272 195 5 0 0 0 - - -;
#X obj 222 215 / 100;
#X obj 272 215 / 100;
#X floatatom 222 236 5 0 0 0 - - -;
#X floatatom 272 236 5 0 0 0 - - -;
#X msg 74 108 mute_sig \$1;
#X obj 74 91 tgl 15 0 empty empty empty 0 -6 0 8 -262144 -1 -1 0 1
;
#X text 219 180 Control coordinates;
#X text 390 187 Signal coordinates;
#X text 164 147 In order to change the coordinates type: 'c'->cartesian
\, 'p'->polar.;
#X text 320 402 <- Loudspeakers gain.;
#X text 118 25 It is possible to change the coordinate type dynamicaly
and to desactivate the audio inlet in order to use lists.;
#X text 155 96 In order to deactivate the audio inlets. When they are
desactivated \, the list coordinates is received by the first inlet.
;
#X obj 171 313 cicmtools/ambipan~ 4 c s;
#X connect 0 0 4 0;
#X connect 1 0 6 0;
#X connect 2 0 5 0;
#X connect 3 0 7 0;
#X connect 8 0 15 0;
#X connect 9 0 16 0;
#X connect 10 0 36 0;
#X connect 11 0 36 0;
#X connect 12 0 11 0;
#X connect 13 0 36 0;
#X connect 14 0 36 1;
#X connect 15 0 20 0;
#X connect 16 0 21 0;
#X connect 17 0 36 2;
#X connect 18 0 36 0;
#X connect 19 0 36 0;
#X connect 20 0 14 0;
#X connect 21 0 17 0;
#X connect 22 0 24 0;
#X connect 23 0 25 0;
#X connect 24 0 26 0;
#X connect 25 0 27 0;
#X connect 26 0 11 0;
#X connect 27 0 11 1;
#X connect 27 0 12 0;
#X connect 28 0 36 0;
#X connect 29 0 28 0;
#X connect 36 0 0 0;
#X connect 36 1 1 0;
#X connect 36 2 2 0;
#X connect 36 3 3 0;
#X restore 82 477 pd others_fonctionnalities;
#X text 405 544 See also:;
#X text 25 164 - 2nd inlet: Abscissa or distance of the source \, according
to the coordinate type.;
#X text 24 528 In order to use all the louspeakers of your sound card
\, if you have a 5.1 system for example \, you must use the audio configuration
flag at the PureData start \, see the manual of PD \, 3.6 paragraph.
;
#X text 12 72 The ambipan~ object spatialises a mono sound in a plan
due to the ambisonic B format of Michael Gerzon. The gains of every
loudspeakers allow creating a virtual location of the sound source
around the listener.;
#X text 26 139 - 1st inlet: Audio signal or source coordinates or others
lists (see later).;
#X obj 21 11 cicmtools/ambipan~;
#X obj 520 326 cicmtools/ambipan~ 8 p;
#X obj 481 545 cicmtools/vbapan~;
#X obj 596 545 cicmtools/ambicube~;
#X obj 409 478 cicmtools/ambipan~ 8;
#X obj 535 135 cicmtools/ambipan~ 3 c s;
#X obj 511 104 *~;
#X obj 433 271 *~;
#X floatatom 448 231 5 0 100 0 - - -;
#X floatatom 526 60 5 0 100 0 - - -;
#X connect 10 0 59 0;
#X connect 11 0 59 1;
#X connect 12 0 13 0;
#X connect 12 0 15 0;
#X connect 13 0 14 0;
#X connect 14 0 58 2;
#X connect 15 0 58 1;
#X connect 21 0 60 0;
#X connect 22 0 60 1;
#X connect 25 0 27 0;
#X connect 26 0 54 2;
#X connect 27 0 54 1;
#X connect 28 0 54 0;
#X connect 29 0 31 0;
#X connect 30 0 28 1;
#X connect 30 0 32 0;
#X connect 31 0 28 0;
#X connect 32 0 28 0;
#X connect 38 0 57 0;
#X connect 39 0 57 0;
#X connect 40 0 57 0;
#X connect 54 0 37 0;
#X connect 54 1 37 1;
#X connect 54 2 37 2;
#X connect 54 3 37 3;
#X connect 54 4 37 4;
#X connect 54 5 37 5;
#X connect 54 6 37 6;
#X connect 54 7 37 7;
#X connect 58 0 16 0;
#X connect 58 1 16 1;
#X connect 59 0 58 0;
#X connect 60 0 54 0;
#X connect 61 0 22 0;
#X connect 62 0 11 0;
