#N canvas 615 76 888 583 10;
#X text 48 39 Authors: R.MIGNOT and B.COURRIBET \, CICM Universite
Paris Nord \, ACI Jeunes Chercheurs "Espaces Sonores".;
#X text 42 190 - 3rd inlet: ordinate or angle of the source in degrees.
;
#X msg 434 22 \; pd dsp 1;
#X obj 558 28 osc~ 440;
#X obj 572 83 / 100;
#X obj 626 44 phasor~ 0.5;
#X obj 671 75 -~ 0.25;
#X obj 671 96 cos~;
#X obj 626 86 cos~;
#X text 557 12 source;
#X text 571 45 gain;
#X text 613 122 X;
#X text 658 123 Y;
#X obj 455 303 osc~ 441;
#X obj 470 364 / 100;
#X floatatom 470 344 5 0 100 0 - - -;
#X text 469 327 gain;
#X text 453 286 source;
#X floatatom 692 329 5 0 0 0 - - -;
#X floatatom 730 329 5 0 0 0 - - -;
#X obj 692 350 / 100;
#X floatatom 542 329 5 0 0 0 - - -;
#X obj 542 350 / 100;
#X obj 542 370 bng 15 250 50 0 empty empty empty 0 -6 0 8 -262144 -1
-1;
#X text 540 315 rayon;
#X text 690 314 rayon;
#X text 728 314 angle;
#X obj 545 447 dac~ 1 2 3 4 5 6 7 8;
#X text 132 412 Others fonctionnalities.;
#N canvas 479 96 593 530 others_fonctionnalities 0;
#X floatatom 265 433 5 0 0 0 - - -;
#X floatatom 320 456 5 0 0 0 - - -;
#X floatatom 320 433 5 0 0 0 - - -;
#X floatatom 265 456 5 0 0 0 - - -;
#X floatatom 372 202 5 0 0 0 - - -;
#X floatatom 417 202 5 0 0 0 - - -;
#X obj 202 249 bng 15 250 50 0 empty empty empty 0 -6 0 8 -262144 -1
-1;
#X obj 46 286 sig~ 1;
#X obj 372 247 sig~ 1;
#X obj 372 216 / 100;
#X obj 417 216 / 100;
#X obj 417 247 sig~ 0;
#X msg 45 137 change_type p;
#X msg 45 154 change_type c;
#X floatatom 372 233 5 0 0 0 - - -;
#X floatatom 417 233 5 0 0 0 - - -;
#X floatatom 202 202 5 0 0 0 - - -;
#X floatatom 242 202 5 0 0 0 - - -;
#X obj 202 216 / 100;
#X obj 242 216 / 100;
#X floatatom 202 233 5 0 0 0 - - -;
#X floatatom 242 233 5 0 0 0 - - -;
#X msg 44 103 mute_sig \$1;
#X obj 44 86 tgl 15 0 empty empty empty 0 -6 0 8 -262144 -1 -1 0 1
;
#X text 199 187 Control coordinates;
#X text 370 188 Signal coordinates;
#X text 376 378 ] above square;
#X obj 202 266 pack f f f;
#X floatatom 282 202 5 0 0 0 - - -;
#X obj 282 216 / 100;
#X floatatom 282 233 5 0 0 0 - - -;
#X floatatom 461 202 5 0 0 0 - - -;
#X obj 461 216 / 100;
#X obj 461 247 sig~ 0;
#X floatatom 461 233 5 0 0 0 - - -;
#X floatatom 265 367 5 0 0 0 - - -;
#X floatatom 320 390 5 0 0 0 - - -;
#X floatatom 320 367 5 0 0 0 - - -;
#X floatatom 265 390 5 0 0 0 - - -;
#X text 376 444 ] square at the bottom;
#X text 134 140 In order to change the coordinates type: 'c'->cartesian
\, 'p'->cylindrical \, 's'->spherical.;
#X msg 45 171 change_type s;
#N canvas 684 176 454 304 env8~ 0;
#X obj 88 87 env~;
#X obj 118 87 env~;
#X obj 148 87 env~;
#X obj 178 87 env~;
#X obj 208 87 env~;
#X obj 238 87 env~;
#X obj 268 87 env~;
#X obj 298 87 env~;
#X obj 42 39 inlet~;
#X obj 85 39 inlet~;
#X obj 126 39 inlet~;
#X obj 169 39 inlet~;
#X obj 212 39 inlet~;
#X obj 255 39 inlet~;
#X obj 295 37 inlet~;
#X obj 339 39 inlet~;
#X obj 43 145 outlet;
#X obj 84 145 outlet;
#X obj 124 145 outlet;
#X obj 165 145 outlet;
#X obj 206 145 outlet;
#X obj 247 145 outlet;
#X obj 287 145 outlet;
#X obj 328 145 outlet;
#X connect 0 0 16 0;
#X connect 1 0 17 0;
#X connect 2 0 18 0;
#X connect 3 0 19 0;
#X connect 4 0 20 0;
#X connect 5 0 21 0;
#X connect 6 0 22 0;
#X connect 7 0 23 0;
#X connect 8 0 0 0;
#X connect 9 0 1 0;
#X connect 10 0 2 0;
#X connect 11 0 3 0;
#X connect 12 0 4 0;
#X connect 13 0 5 0;
#X connect 14 0 6 0;
#X connect 15 0 7 0;
#X restore 213 328 pd env8~;
#X f 17;
#X msg 45 260 set_offset 0.1;
#X text 88 20 It is possible to change the coordinate type dynamicaly
and to desactivate the audio inlet in order to use lists.;
#X text 125 85 In order to desactivate the audio inlets. When they
are desactivated \, the list coordinates is received by the first inlet.
;
#X obj 202 302 cicmtools/ambicube~ c s;
#X connect 4 0 9 0;
#X connect 5 0 10 0;
#X connect 6 0 27 0;
#X connect 7 0 46 0;
#X connect 8 0 46 1;
#X connect 9 0 14 0;
#X connect 10 0 15 0;
#X connect 11 0 46 2;
#X connect 12 0 46 0;
#X connect 13 0 46 0;
#X connect 14 0 8 0;
#X connect 15 0 11 0;
#X connect 16 0 18 0;
#X connect 17 0 19 0;
#X connect 18 0 20 0;
#X connect 19 0 21 0;
#X connect 20 0 27 0;
#X connect 21 0 6 0;
#X connect 21 0 27 1;
#X connect 22 0 46 0;
#X connect 23 0 22 0;
#X connect 27 0 46 0;
#X connect 28 0 29 0;
#X connect 29 0 30 0;
#X connect 30 0 27 2;
#X connect 30 0 6 0;
#X connect 31 0 32 0;
#X connect 32 0 34 0;
#X connect 33 0 46 3;
#X connect 34 0 33 0;
#X connect 41 0 46 0;
#X connect 42 0 0 0;
#X connect 42 1 2 0;
#X connect 42 2 1 0;
#X connect 42 3 3 0;
#X connect 42 4 35 0;
#X connect 42 5 37 0;
#X connect 42 6 36 0;
#X connect 42 7 38 0;
#X connect 43 0 46 0;
#X connect 46 0 42 0;
#X connect 46 1 42 1;
#X connect 46 2 42 2;
#X connect 46 3 42 3;
#X connect 46 4 42 4;
#X connect 46 5 42 5;
#X connect 46 6 42 6;
#X connect 46 7 42 7;
#X restore 134 428 pd others_fonctionnalities;
#X text 499 503 See also:;
#X text 142 13 - 3D spatialisation by ambisonic B format;
#X text 42 205 - 4th inlet: height or elevation angle of the source.
;
#X text 43 267 - 2rd parameter: Control type of the coordinates: 'c'
-> control data \, 's' -> audio signal \, without parameter it is control
data.;
#X text 43 302 - 3th parameter: Ambisonic offset. By default .3.;
#X text 43 314 - 4th parameter: Interpolation time in ms. With control
data only.;
#X text 43 230 - 1nd parameter: Coordinate type: 'c' -> cartesian \,
'p' -> cylindrical \, 's' -> spherical \, by default the coordinates
are cartesian.;
#X floatatom 660 223 5 0 0 0 - - -;
#X floatatom 660 205 5 0 0 0 - - -;
#X floatatom 582 223 5 0 0 0 - - -;
#X floatatom 582 205 5 0 0 0 - - -;
#X floatatom 662 272 5 0 0 0 - - -;
#X floatatom 662 254 5 0 0 0 - - -;
#X floatatom 582 272 5 0 0 0 - - -;
#X floatatom 582 254 5 0 0 0 - - -;
#X text 707 213 ] above square;
#X text 711 261 ] square at the bottom;
#X text 703 123 Z;
#N canvas 848 149 456 306 env8~ 0;
#X obj 88 87 env~;
#X obj 118 87 env~;
#X obj 148 87 env~;
#X obj 178 87 env~;
#X obj 208 87 env~;
#X obj 238 87 env~;
#X obj 268 87 env~;
#X obj 298 87 env~;
#X obj 42 39 inlet~;
#X obj 85 39 inlet~;
#X obj 126 39 inlet~;
#X obj 169 39 inlet~;
#X obj 212 39 inlet~;
#X obj 255 39 inlet~;
#X obj 295 37 inlet~;
#X obj 339 39 inlet~;
#X obj 43 145 outlet;
#X obj 84 145 outlet;
#X obj 124 145 outlet;
#X obj 165 145 outlet;
#X obj 206 145 outlet;
#X obj 247 145 outlet;
#X obj 287 145 outlet;
#X obj 328 145 outlet;
#X connect 0 0 16 0;
#X connect 1 0 17 0;
#X connect 2 0 18 0;
#X connect 3 0 19 0;
#X connect 4 0 20 0;
#X connect 5 0 21 0;
#X connect 6 0 22 0;
#X connect 7 0 23 0;
#X connect 8 0 0 0;
#X connect 9 0 1 0;
#X connect 10 0 2 0;
#X connect 11 0 3 0;
#X connect 12 0 4 0;
#X connect 13 0 5 0;
#X connect 14 0 6 0;
#X connect 15 0 7 0;
#X restore 591 164 pd env8~;
#X f 19;
#X floatatom 767 330 5 0 0 0 - - -;
#X obj 767 351 / 100;
#X text 765 315 height;
#X obj 730 350 / 1;
#X floatatom 580 329 5 0 0 0 - - -;
#X text 578 314 angle;
#X floatatom 618 330 5 0 0 0 - - -;
#X obj 618 351 / 100;
#X text 616 315 height;
#X obj 580 350 / 1;
#X obj 542 389 pack f f f;
#X obj 550 166 dac~;
#X obj 716 98 osc~ 0.5;
#X text 40 165 - 2nd inlet: Abscissa or distance of the source \, according
to the coordinate type.;
#X text 43 351 - outlets: Audio oultets to the loudspeakers. The disposition
is: the 4 first outlets form the square at the bottom and the 4 others
form the above square of the cube.;
#X text 40 491 In order to use all the louspeakers of your sound card
\, if you have a 5.1 system for example \, you must use the audio configuration
flag at the PureData start \, see the manual of PD \, 3.6 paragraph.
;
#X text 42 140 - 1st inlet: Audio signal or source coordinates or others
lists (see later).;
#X text 28 70 The ambicube~ object spatialises a mono sound in the
space due to the ambisonic B format of Michael Gerzon. The gains of
the eight loudspeakers \, forming a cube \, allow creating a virtual
location of the sound source around the listener in three dimensions.
;
#X obj 542 413 cicmtools/ambicube~ p;
#X obj 581 136 cicmtools/ambicube~ c s;
#X obj 701 504 cicmtools/ambipan~;
#X obj 576 504 cicmtools/vbapan~;
#X obj 19 12 cicmtools/ambicube~;
#X obj 557 105 *~;
#X obj 455 386 *~;
#X floatatom 572 62 5 0 100 0 - - -;
#X connect 3 0 72 0;
#X connect 4 0 72 1;
#X connect 5 0 6 0;
#X connect 5 0 8 0;
#X connect 6 0 7 0;
#X connect 7 0 68 2;
#X connect 8 0 68 1;
#X connect 13 0 73 0;
#X connect 14 0 73 1;
#X connect 15 0 14 0;
#X connect 18 0 20 0;
#X connect 19 0 52 0;
#X connect 20 0 67 1;
#X connect 21 0 22 0;
#X connect 22 0 59 0;
#X connect 23 0 59 0;
#X connect 48 0 44 0;
#X connect 48 1 42 0;
#X connect 48 2 41 0;
#X connect 48 3 43 0;
#X connect 48 4 40 0;
#X connect 48 5 38 0;
#X connect 48 6 37 0;
#X connect 48 7 39 0;
#X connect 49 0 50 0;
#X connect 50 0 67 3;
#X connect 52 0 67 2;
#X connect 53 0 58 0;
#X connect 55 0 56 0;
#X connect 56 0 23 0;
#X connect 56 0 59 2;
#X connect 58 0 23 0;
#X connect 58 0 59 1;
#X connect 59 0 67 0;
#X connect 61 0 68 3;
#X connect 67 0 27 0;
#X connect 67 1 27 1;
#X connect 67 2 27 2;
#X connect 67 3 27 3;
#X connect 67 4 27 4;
#X connect 67 5 27 5;
#X connect 67 6 27 6;
#X connect 67 7 27 7;
#X connect 68 0 48 0;
#X connect 68 0 60 0;
#X connect 68 1 48 1;
#X connect 68 1 60 1;
#X connect 68 2 48 2;
#X connect 68 3 48 3;
#X connect 68 4 48 4;
#X connect 68 5 48 5;
#X connect 68 6 48 6;
#X connect 68 7 48 7;
#X connect 72 0 68 0;
#X connect 73 0 67 0;
#X connect 74 0 4 0;
